<?xml version="1.0" encoding="UTF-8" standalone="no"?><!DOCTYPE svg PUBLIC "-//W3C//DTD SVG 1.1//EN" "http://www.w3.org/Graphics/SVG/1.1/DTD/svg11.dtd"><svg width="100%" height="100%" viewBox="0 0 97 24" version="1.1" xmlns="http://www.w3.org/2000/svg" xmlns:xlink="http://www.w3.org/1999/xlink" xml:space="preserve" xmlns:serif="http://www.serif.com/" style="fill-rule:evenodd;clip-rule:evenodd;stroke-linejoin:round;stroke-miterlimit:1.41421;"><g><g id="logo"><path id="m" d="M46.53,0.566l0,21.303l-2.604,0l0,-18.875l0,-2.428l2.604,0Zm-42.683,4.726l2.428,1.386l0,14.117l-2.428,0l0,-15.503Zm34.096,-3.478l0,2.322l-10.63,5.998l-1.629,0l-1.308,0l-12.95,-6.834l0,0.011l-2.433,-1.282l2.433,0l13.672,6.975l1.262,0l11.583,-7.19Z" style="fill:#fff;"/><path id="n" d="M39.248,19.312l0,-18.338l3.288,0l0,22.19l-0.139,0l-5.172,0l-34.796,-20.169l0,18.986l-2.429,0l0,-21.415l3.847,0l35.401,18.746Z" style="fill:#fff;"/></g><g id="text"><g><path d="M51.19,3.393l1.414,0l0,0.927c0.146,-0.723 0.979,-1.084 2.497,-1.084c0.974,0 1.658,0.175 2.05,0.526c0.393,0.351 0.589,0.903 0.589,1.657l0,5.577l-1.413,0l0,-5.498c0,-0.199 -0.016,-0.361 -0.048,-0.487c-0.031,-0.126 -0.094,-0.251 -0.188,-0.377c-0.21,-0.262 -0.676,-0.393 -1.398,-0.393c-0.555,0 -0.982,0.039 -1.28,0.118c-0.299,0.079 -0.508,0.207 -0.629,0.385c-0.12,0.178 -0.18,0.429 -0.18,0.754l0,5.498l-1.414,0l0,-7.603Z" style="fill:#fff;fill-rule:nonzero;"/><path d="M62.94,11.153c-0.671,0 -1.173,-0.024 -1.508,-0.071c-0.335,-0.047 -0.671,-0.149 -1.006,-0.306c-0.345,-0.157 -0.597,-0.411 -0.754,-0.762c-0.157,-0.351 -0.235,-0.825 -0.235,-1.422l0,-2.639c0,-0.471 0.057,-0.884 0.173,-1.241c0.115,-0.356 0.267,-0.633 0.455,-0.832c0.157,-0.178 0.395,-0.317 0.715,-0.416c0.319,-0.1 0.646,-0.165 0.982,-0.197c0.377,-0.021 0.769,-0.031 1.178,-0.031c0.544,0 0.955,0.013 1.233,0.039c0.277,0.026 0.573,0.081 0.887,0.165c0.325,0.094 0.576,0.236 0.754,0.424c0.178,0.189 0.33,0.461 0.456,0.817c0.115,0.367 0.173,0.791 0.173,1.272l0,2.639c0,0.891 -0.205,1.54 -0.613,1.948c-0.168,0.168 -0.408,0.299 -0.723,0.393c-0.314,0.094 -0.638,0.157 -0.973,0.188c-0.398,0.021 -0.796,0.032 -1.194,0.032Zm0,-0.927c0.44,0 0.759,-0.01 0.958,-0.031c0.199,-0.021 0.393,-0.079 0.581,-0.173c0.189,-0.084 0.322,-0.223 0.401,-0.416c0.078,-0.194 0.117,-0.464 0.117,-0.809l0,-3.079c0,-0.471 -0.057,-0.814 -0.172,-1.029c-0.116,-0.215 -0.312,-0.356 -0.589,-0.424c-0.278,-0.068 -0.71,-0.102 -1.296,-0.102c-0.587,0 -1.019,0.034 -1.296,0.102c-0.278,0.068 -0.474,0.209 -0.589,0.424c-0.115,0.215 -0.173,0.558 -0.173,1.029l0,3.079c0,0.345 0.039,0.615 0.118,0.809c0.078,0.193 0.212,0.332 0.4,0.416c0.189,0.094 0.383,0.152 0.582,0.173c0.198,0.021 0.518,0.031 0.958,0.031Z" style="fill:#fff;fill-rule:nonzero;"/><path d="M68.171,3.393l1.413,0l0,0.927c0.147,-0.723 1,-1.084 2.561,-1.084c1.267,0 2.058,0.345 2.372,1.037c0.094,-0.335 0.379,-0.592 0.856,-0.77c0.476,-0.178 1.06,-0.267 1.751,-0.267c0.943,0 1.608,0.175 1.995,0.526c0.388,0.351 0.581,0.903 0.581,1.657l0,5.577l-1.413,0l0,-5.482c0,-0.199 -0.016,-0.362 -0.047,-0.487c-0.032,-0.126 -0.095,-0.252 -0.189,-0.377c-0.209,-0.262 -0.675,-0.393 -1.398,-0.393c-0.555,0 -0.969,0.037 -1.241,0.11c-0.272,0.073 -0.458,0.199 -0.558,0.377c-0.099,0.178 -0.149,0.434 -0.149,0.77l0,5.482l-1.414,0l0,-5.482c0,-0.199 -0.015,-0.362 -0.047,-0.487c-0.031,-0.126 -0.094,-0.252 -0.188,-0.377c-0.21,-0.262 -0.67,-0.393 -1.383,-0.393c-0.575,0 -1.01,0.037 -1.303,0.11c-0.294,0.073 -0.498,0.196 -0.613,0.369c-0.115,0.173 -0.173,0.432 -0.173,0.778l0,5.482l-1.413,0l0,-7.603Z" style="fill:#fff;fill-rule:nonzero;"/><path d="M84.02,11.153c-0.722,0 -1.28,-0.068 -1.673,-0.204c-0.392,-0.136 -0.675,-0.377 -0.848,-0.723c-0.173,-0.346 -0.259,-0.843 -0.259,-1.492c0,-0.576 0.081,-1.024 0.243,-1.343c0.163,-0.32 0.44,-0.547 0.833,-0.684c0.393,-0.136 0.95,-0.204 1.673,-0.204l2.277,0l0,-1.209c0,-0.283 -0.055,-0.5 -0.164,-0.652c-0.11,-0.152 -0.294,-0.259 -0.55,-0.322c-0.257,-0.063 -0.631,-0.094 -1.123,-0.094c-0.786,0 -1.655,0.062 -2.608,0.188l0,-1.037c1.037,-0.094 1.974,-0.141 2.812,-0.141c0.879,0 1.529,0.065 1.948,0.196c0.418,0.131 0.706,0.359 0.864,0.684c0.157,0.324 0.235,0.827 0.235,1.508l0,5.372l-1.366,0l0,-0.723c-0.116,0.587 -0.88,0.88 -2.294,0.88Zm0.236,-0.927c0.513,0 0.948,-0.037 1.304,-0.11c0.471,-0.094 0.706,-0.314 0.706,-0.66l0,-2.073l-2.183,0c-0.45,0 -0.775,0.034 -0.974,0.102c-0.199,0.068 -0.33,0.196 -0.393,0.385c-0.062,0.188 -0.094,0.492 -0.094,0.911c0,0.377 0.037,0.668 0.11,0.872c0.073,0.204 0.204,0.351 0.393,0.44c0.188,0.089 0.471,0.133 0.848,0.133l0.283,0Z" style="fill:#fff;fill-rule:nonzero;"/><path d="M92.377,11.153c-0.754,0 -1.346,-0.076 -1.775,-0.228c-0.429,-0.152 -0.741,-0.4 -0.935,-0.746c-0.193,-0.346 -0.29,-0.827 -0.29,-1.445l0,-3.346c0,-0.765 0.238,-1.314 0.714,-1.649c0.477,-0.336 1.265,-0.503 2.364,-0.503c0.66,0 1.228,0.084 1.705,0.251c0.476,0.168 0.72,0.409 0.73,0.723l0.032,0l-0.032,-1.932l0,-2.278l1.414,0l0,10.996l-1.382,0l0,-0.896c0,0.283 -0.225,0.524 -0.676,0.723c-0.45,0.22 -1.073,0.33 -1.869,0.33Zm0.298,-0.974c0.786,0 1.351,-0.089 1.697,-0.267c0.345,-0.178 0.518,-0.482 0.518,-0.911l0,-3.754c0,-0.681 -0.696,-1.021 -2.089,-1.021c-0.838,0 -1.382,0.062 -1.634,0.188c-0.261,0.126 -0.392,0.403 -0.392,0.833l0,3.754c0,0.429 0.144,0.733 0.432,0.911c0.288,0.178 0.777,0.267 1.468,0.267Z" style="fill:#fff;fill-rule:nonzero;"/></g><g><path d="M51.19,12.981l1.414,0l0,0.927c0.146,-0.722 1,-1.084 2.56,-1.084c1.267,0 2.058,0.346 2.372,1.037c0.094,-0.335 0.38,-0.592 0.856,-0.77c0.477,-0.178 1.06,-0.267 1.752,-0.267c0.942,0 1.607,0.176 1.995,0.527c0.387,0.35 0.581,0.903 0.581,1.657l0,5.576l-1.414,0l0,-5.482c0,-0.199 -0.016,-0.361 -0.047,-0.487c-0.031,-0.126 -0.094,-0.251 -0.189,-0.377c-0.209,-0.262 -0.675,-0.393 -1.398,-0.393c-0.555,0 -0.968,0.037 -1.241,0.11c-0.272,0.074 -0.458,0.199 -0.557,0.377c-0.1,0.178 -0.149,0.435 -0.149,0.77l0,5.482l-1.414,0l0,-5.482c0,-0.199 -0.016,-0.361 -0.047,-0.487c-0.032,-0.126 -0.095,-0.251 -0.189,-0.377c-0.209,-0.262 -0.67,-0.393 -1.382,-0.393c-0.576,0 -1.011,0.037 -1.304,0.11c-0.293,0.074 -0.497,0.197 -0.613,0.37c-0.115,0.172 -0.172,0.431 -0.172,0.777l0,5.482l-1.414,0l0,-7.603Z" style="fill:#fff;fill-rule:nonzero;"/><path d="M66.49,20.741c-0.723,0 -1.28,-0.068 -1.673,-0.204c-0.393,-0.136 -0.676,-0.377 -0.848,-0.722c-0.173,-0.346 -0.26,-0.843 -0.26,-1.493c0,-0.576 0.082,-1.023 0.244,-1.343c0.162,-0.319 0.44,-0.547 0.832,-0.683c0.393,-0.136 0.951,-0.204 1.673,-0.204l2.278,0l0,-1.21c0,-0.283 -0.055,-0.5 -0.165,-0.652c-0.11,-0.152 -0.293,-0.259 -0.55,-0.322c-0.256,-0.063 -0.631,-0.094 -1.123,-0.094c-0.785,0 -1.654,0.063 -2.607,0.188l0,-1.036c1.036,-0.095 1.974,-0.142 2.811,-0.142c0.88,0 1.529,0.066 1.948,0.197c0.419,0.131 0.707,0.358 0.864,0.683c0.157,0.325 0.236,0.827 0.236,1.508l0,5.372l-1.367,0l0,-0.722c-0.115,0.586 -0.879,0.879 -2.293,0.879Zm0.235,-0.926c0.514,0 0.948,-0.037 1.304,-0.11c0.471,-0.095 0.707,-0.315 0.707,-0.66l0,-2.074l-2.183,0c-0.451,0 -0.775,0.034 -0.974,0.102c-0.199,0.069 -0.33,0.197 -0.393,0.385c-0.063,0.189 -0.094,0.492 -0.094,0.911c0,0.377 0.036,0.668 0.11,0.872c0.073,0.204 0.204,0.351 0.392,0.44c0.189,0.089 0.472,0.134 0.849,0.134l0.282,0Z" style="fill:#fff;fill-rule:nonzero;"/><path d="M74.642,20.741c-0.523,0 -0.903,-0.01 -1.139,-0.031c-0.235,-0.021 -0.505,-0.073 -0.808,-0.157c-0.325,-0.084 -0.576,-0.21 -0.754,-0.377c-0.179,-0.168 -0.33,-0.414 -0.456,-0.738c-0.126,-0.315 -0.189,-0.707 -0.189,-1.179l0,-2.796c0,-0.848 0.163,-1.455 0.487,-1.822c0.178,-0.209 0.359,-0.369 0.542,-0.479c0.184,-0.11 0.422,-0.186 0.715,-0.228c0.293,-0.042 0.555,-0.07 0.786,-0.086c0.23,-0.016 0.555,-0.024 0.973,-0.024c0.723,0 1.446,0.079 2.168,0.236l0,1.037c-0.838,-0.21 -1.618,-0.314 -2.34,-0.314c-0.545,0 -0.945,0.039 -1.202,0.117c-0.257,0.079 -0.435,0.22 -0.534,0.425c-0.1,0.204 -0.149,0.515 -0.149,0.934l0,3.11c0,0.388 0.055,0.676 0.165,0.864c0.11,0.189 0.309,0.322 0.596,0.401c0.288,0.078 0.715,0.118 1.281,0.118c0.764,0 1.529,-0.1 2.293,-0.299l0,1.068c-0.712,0.147 -1.524,0.22 -2.435,0.22Z" style="fill:#fff;fill-rule:nonzero;"/><path d="M80.187,20.741c-0.722,0 -1.28,-0.068 -1.673,-0.204c-0.392,-0.136 -0.675,-0.377 -0.848,-0.722c-0.173,-0.346 -0.259,-0.843 -0.259,-1.493c0,-0.576 0.081,-1.023 0.243,-1.343c0.163,-0.319 0.44,-0.547 0.833,-0.683c0.393,-0.136 0.95,-0.204 1.673,-0.204l2.278,0l0,-1.21c0,-0.283 -0.055,-0.5 -0.165,-0.652c-0.11,-0.152 -0.294,-0.259 -0.55,-0.322c-0.257,-0.063 -0.631,-0.094 -1.123,-0.094c-0.786,0 -1.655,0.063 -2.608,0.188l0,-1.036c1.037,-0.095 1.974,-0.142 2.812,-0.142c0.88,0 1.529,0.066 1.948,0.197c0.419,0.131 0.707,0.358 0.864,0.683c0.157,0.325 0.235,0.827 0.235,1.508l0,5.372l-1.366,0l0,-0.722c-0.115,0.586 -0.88,0.879 -2.294,0.879Zm0.236,-0.926c0.513,0 0.948,-0.037 1.304,-0.11c0.471,-0.095 0.707,-0.315 0.707,-0.66l0,-2.074l-2.184,0c-0.45,0 -0.775,0.034 -0.974,0.102c-0.199,0.069 -0.33,0.197 -0.392,0.385c-0.063,0.189 -0.095,0.492 -0.095,0.911c0,0.377 0.037,0.668 0.11,0.872c0.074,0.204 0.204,0.351 0.393,0.44c0.188,0.089 0.471,0.134 0.848,0.134l0.283,0Z" style="fill:#fff;fill-rule:nonzero;"/><path d="M84.24,12.981l1.555,0l1.854,6.252l0.094,0l1.791,-6.252l1.586,0l1.854,6.252l0.094,0l1.791,-6.252l1.445,0l-2.498,7.603l-1.68,0l-1.838,-6.142l-1.807,6.142l-1.68,0l-2.561,-7.603Z" style="fill:#fff;fill-rule:nonzero;"/></g></g></g></svg>