<?xml version="1.0" encoding="UTF-8" standalone="no"?><!DOCTYPE svg PUBLIC "-//W3C//DTD SVG 1.1//EN" "http://www.w3.org/Graphics/SVG/1.1/DTD/svg11.dtd"><svg width="100%" height="100%" viewBox="0 0 3 4" version="1.1" xmlns="http://www.w3.org/2000/svg" xmlns:xlink="http://www.w3.org/1999/xlink" xml:space="preserve" xmlns:serif="http://www.serif.com/" style="fill-rule:evenodd;clip-rule:evenodd;stroke-linejoin:round;stroke-miterlimit:1.41421;"><path id="quote" d="M1.73,0l0,0.274c-0.392,0.205 -0.672,0.419 -0.841,0.641c-0.17,0.223 -0.254,0.466 -0.254,0.729c0,0.156 0.022,0.262 0.067,0.32c0.04,0.063 0.089,0.094 0.147,0.094c0.057,0 0.135,-0.017 0.233,-0.05c0.098,-0.034 0.187,-0.05 0.268,-0.05c0.182,0 0.341,0.068 0.477,0.203c0.136,0.136 0.204,0.302 0.204,0.498c0,0.214 -0.082,0.398 -0.247,0.551c-0.165,0.154 -0.37,0.231 -0.615,0.231c-0.298,0 -0.568,-0.129 -0.808,-0.388c-0.241,-0.258 -0.361,-0.576 -0.361,-0.955c0,-0.445 0.148,-0.861 0.444,-1.246c0.297,-0.385 0.725,-0.669 1.286,-0.852Z" style="fill:#737373;"/></svg>