<?xml version="1.0" encoding="UTF-8" standalone="no"?><!DOCTYPE svg PUBLIC "-//W3C//DTD SVG 1.1//EN" "http://www.w3.org/Graphics/SVG/1.1/DTD/svg11.dtd"><svg width="100%" height="100%" viewBox="0 0 650 600" version="1.1" xmlns="http://www.w3.org/2000/svg" xmlns:xlink="http://www.w3.org/1999/xlink" xml:space="preserve" xmlns:serif="http://www.serif.com/" style="fill-rule:evenodd;clip-rule:evenodd;stroke-linejoin:round;stroke-miterlimit:1.41421;"><g><path d="M511.275,511.279l-88.933,0l0,-139.241c0,-33.221 -0.609,-75.934 -46.246,-75.934c-46.308,0 -53.4,36.179 -53.4,73.525l0,141.65l-88.929,0l0,-286.333l85.366,0l0,39.121l1.188,0c11.871,-22.513 40.904,-46.25 84.2,-46.25c90.116,0 106.754,59.308 106.754,136.4l0,157.062Zm-377.8,-325.479c-28.525,0 -51.613,-23.125 -51.613,-51.612c0,-28.459 23.088,-51.58 51.613,-51.58c28.45,0 51.571,23.121 51.571,51.58c0,28.487 -23.121,51.612 -51.571,51.612Zm44.479,325.479l-89,0l0,-286.333l89,0l0,286.333Zm377.642,-511.279l-511.313,0c-24.433,0 -44.283,19.367 -44.283,43.246l0,513.458c0,23.9 19.85,43.296 44.283,43.296l511.313,0c24.475,0 44.412,-19.396 44.412,-43.296l0,-513.458c0,-23.879 -19.937,-43.246 -44.412,-43.246Z" style="fill:#231f20;fill-rule:nonzero;"/><path d="M630.287,498.267l-2.808,0l0,-5.692l3.559,0c1.837,0 3.941,0.3 3.941,2.704c0,2.767 -2.121,2.988 -4.692,2.988Zm2.792,1.687c2.838,-0.35 4.321,-1.908 4.321,-4.537c0,-3.204 -1.933,-4.759 -5.917,-4.759l-6.416,0l0,16.846l2.412,0l0,-7.333l2.979,0l0.067,0.087l4.612,7.246l2.584,0l-4.963,-7.508l0.321,-0.042Z" style="fill:#231f20;fill-rule:nonzero;"/><path d="M630.563,512.946c-7.634,0 -13.613,-6.021 -13.613,-13.85c0,-7.808 5.979,-13.834 13.613,-13.834c7.624,0 13.604,6.026 13.604,13.834c0,7.829 -5.98,13.85 -13.604,13.85Zm0,-29.779c-8.946,0 -15.959,7.004 -15.959,15.929c0,8.95 7.013,15.933 15.959,15.933c8.937,0 15.937,-6.983 15.937,-15.933c0,-8.925 -7,-15.929 -15.937,-15.929Z" style="fill:#231f20;fill-rule:nonzero;"/></g></svg>