<?xml version="1.0" encoding="UTF-8" standalone="no"?><!DOCTYPE svg PUBLIC "-//W3C//DTD SVG 1.1//EN" "http://www.w3.org/Graphics/SVG/1.1/DTD/svg11.dtd"><svg width="100%" height="100%" viewBox="0 0 5 3" version="1.1" xmlns="http://www.w3.org/2000/svg" xmlns:xlink="http://www.w3.org/1999/xlink" xml:space="preserve" xmlns:serif="http://www.serif.com/" style="fill-rule:evenodd;clip-rule:evenodd;stroke-linejoin:round;stroke-miterlimit:1.41421;"><path id="mail-icon" d="M0.006,0.028l0,2.808l4.32,0l0,-2.808l-4.32,0Zm2.527,1.717c-0.097,0.098 -0.227,0.152 -0.367,0.152c-0.14,0 -0.27,-0.054 -0.367,-0.152l-1.501,-1.501l3.726,0l-1.491,1.501Zm-1.199,-0.313l-1.112,1.113l0,-2.225l1.112,1.112Zm0.076,0.076l0.313,0.313c0.119,0.119 0.281,0.184 0.443,0.184c0.173,0 0.324,-0.065 0.443,-0.184l0.313,-0.313l1.112,1.112l-3.736,0l1.112,-1.112Zm1.588,-0.076l1.112,-1.112l0,2.235l-1.112,-1.123Z" style="fill:#737373;fill-rule:nonzero;"/></svg>