<?xml version="1.0" encoding="UTF-8" standalone="no"?><!DOCTYPE svg PUBLIC "-//W3C//DTD SVG 1.1//EN" "http://www.w3.org/Graphics/SVG/1.1/DTD/svg11.dtd"><svg width="100%" height="100%" viewBox="0 0 5 5" version="1.1" xmlns="http://www.w3.org/2000/svg" xmlns:xlink="http://www.w3.org/1999/xlink" xml:space="preserve" xmlns:serif="http://www.serif.com/" style="fill-rule:evenodd;clip-rule:evenodd;stroke-linejoin:round;stroke-miterlimit:1.41421;"><path id="phone-icon" d="M0.763,0.198c0.029,0 0.059,0.01 0.078,0.02c0.078,0.03 0.548,0.456 0.636,1c0,0 -0.049,0.228 -0.274,0.545c0,0 0.049,0.228 0.588,0.773c0.548,0.544 0.773,0.594 0.773,0.594c0.313,-0.228 0.548,-0.277 0.548,-0.277c0.548,0.089 0.969,0.564 0.998,0.643c0.108,0.248 -0.313,0.595 -0.313,0.595c-0.098,0.039 -0.205,0.059 -0.323,0.059c-0.871,0 -2.026,-1.139 -2.085,-1.198c-0.029,-0.03 -1.507,-1.536 -1.135,-2.417c0,0 0.284,-0.337 0.509,-0.337m0.626,2.754m0,0m-0.626,-2.952c-0.304,0 -0.607,0.337 -0.656,0.406l-0.02,0.02l-0.009,0.03c-0.421,0.98 0.998,2.456 1.174,2.634c0.137,0.139 1.292,1.258 2.222,1.258c0.147,0 0.274,-0.03 0.392,-0.079l0.029,-0.01l0.02,-0.02c0.088,-0.069 0.528,-0.465 0.372,-0.822c-0.059,-0.139 -0.539,-0.654 -1.146,-0.753l-0.039,-0.01l-0.039,0.01c-0.029,0.01 -0.235,0.05 -0.528,0.248c-0.098,-0.05 -0.294,-0.188 -0.617,-0.505c-0.313,-0.317 -0.45,-0.515 -0.499,-0.614c0.186,-0.297 0.235,-0.505 0.244,-0.525l0.01,-0.04l-0.01,-0.039c-0.098,-0.615 -0.616,-1.09 -0.753,-1.159c-0.04,-0.02 -0.088,-0.03 -0.147,-0.03Z" style="fill:#737373;fill-rule:nonzero;"/></svg>